<?xml version="1.0" encoding="UTF-8" ?>
<!DOCTYPE svg PUBLIC "-//W3C//DTD SVG 1.1//EN" "http://www.w3.org/Graphics/SVG/1.1/DTD/svg11.dtd">
<svg width="512pt" height="512pt" viewBox="0 0 512 512" version="1.1" xmlns="http://www.w3.org/2000/svg">
<g id="#929292ff">
<path fill="#929292" opacity="1.00" d=" M 456.62 0.00 L 477.30 0.00 C 490.31 3.14 500.81 15.57 499.94 29.22 C 500.09 179.11 499.96 329.02 500.00 478.91 C 500.27 486.24 499.42 493.85 494.97 499.95 C 488.41 511.74 474.07 512.46 462.30 511.11 C 446.36 513.46 431.08 498.60 432.06 482.84 C 432.03 331.32 431.83 179.79 432.16 28.27 C 431.44 14.08 443.31 2.58 456.62 0.00 Z" />
<path fill="#929292" opacity="1.00" d=" M 22.99 13.10 C 36.86 -5.14 65.10 -1.13 81.95 11.06 C 178.13 76.78 273.96 143.04 369.98 209.00 C 385.88 220.09 398.93 238.36 397.11 258.57 C 397.12 279.00 382.37 295.61 366.11 306.12 C 271.67 370.98 177.42 436.14 82.93 500.92 C 74.92 506.30 65.83 510.03 56.40 512.00 L 45.54 512.00 C 24.40 508.59 13.21 486.55 12.07 466.81 C 11.88 330.21 12.10 193.60 11.96 57.00 C 11.93 41.94 13.26 25.38 22.99 13.10 Z" />
</g>
</svg>
