<?xml version="1.0" encoding="UTF-8" ?>
<!DOCTYPE svg PUBLIC "-//W3C//DTD SVG 1.1//EN" "http://www.w3.org/Graphics/SVG/1.1/DTD/svg11.dtd">
<svg width="512pt" height="512pt" viewBox="0 0 512 512" version="1.1" xmlns="http://www.w3.org/2000/svg">
<g id="#ffffffff">
<path fill="#ffffff" opacity="1.00" d=" M 457.64 0.00 L 475.38 0.00 C 484.63 1.29 493.27 7.24 497.20 15.78 C 501.36 24.92 499.77 35.14 500.03 44.84 C 499.97 191.51 499.99 338.18 500.02 484.85 C 499.56 498.07 489.47 509.38 476.70 512.00 L 471.34 512.00 C 465.39 509.82 458.88 511.51 452.74 510.59 C 440.79 507.25 431.26 495.52 432.02 482.88 C 432.05 331.34 431.85 179.79 432.12 28.25 C 431.52 13.87 443.75 1.71 457.64 0.00 Z" />
<path fill="#ffffff" opacity="1.00" d=" M 32.67 4.57 C 49.92 -3.53 70.34 2.01 85.02 12.97 C 179.03 77.62 273.09 142.20 366.99 207.00 C 381.26 215.92 392.67 229.96 396.81 246.41 C 397.93 258.12 397.21 270.69 390.90 280.96 C 384.00 294.32 370.98 302.67 359.02 311.02 C 267.72 373.69 176.65 436.68 85.34 499.33 C 76.46 505.59 66.30 510.23 55.53 512.00 L 45.56 512.00 C 40.40 510.14 34.75 509.14 30.37 505.63 C 17.74 495.87 12.65 479.27 12.03 463.88 C 11.97 327.26 12.00 190.64 12.01 54.03 C 11.58 35.97 15.88 14.58 32.67 4.57 Z" />
</g>
</svg>
