<?xml version="1.0" encoding="UTF-8" ?>
<!DOCTYPE svg PUBLIC "-//W3C//DTD SVG 1.1//EN" "http://www.w3.org/Graphics/SVG/1.1/DTD/svg11.dtd">
<svg width="512pt" height="512pt" viewBox="0 0 512 512" version="1.1" xmlns="http://www.w3.org/2000/svg">
<g id="#0f4271ff">
<path fill="#0f4271" opacity="1.00" d=" M 240.54 0.00 L 271.42 0.00 C 344.79 4.96 415.77 42.00 459.90 101.10 C 490.50 140.53 507.61 189.17 512.00 238.65 L 512.00 273.43 C 509.42 300.65 503.64 327.75 492.99 353.00 C 463.16 427.31 396.26 485.42 318.48 504.47 C 304.05 508.46 289.08 509.60 274.35 512.00 L 237.57 512.00 C 185.65 507.36 134.56 488.19 94.41 454.60 C 37.77 409.31 3.04 338.68 0.00 266.39 L 0.00 240.62 C 1.83 229.68 2.37 218.54 4.66 207.66 C 19.12 127.54 75.39 56.96 149.28 23.29 C 177.90 9.90 209.12 2.61 240.54 0.00 M 191.73 146.44 C 184.84 147.95 178.60 154.65 179.96 162.04 C 180.08 228.62 179.92 295.20 180.04 361.78 C 178.55 373.05 192.91 381.25 202.30 375.33 C 252.41 343.15 302.29 310.61 352.35 278.37 C 355.62 275.98 359.97 274.79 361.99 270.96 C 368.31 264.07 364.84 252.07 356.81 248.05 C 307.00 215.53 256.96 183.38 207.07 151.00 C 202.50 148.25 197.42 144.37 191.73 146.44 Z" />
</g>
<g id="#ffffffff">
<path fill="#ffffff" opacity="1.00" d=" M 191.73 146.44 C 197.42 144.37 202.50 148.25 207.07 151.00 C 256.96 183.38 307.00 215.53 356.81 248.05 C 364.84 252.07 368.31 264.07 361.99 270.96 C 359.97 274.79 355.62 275.98 352.35 278.37 C 302.29 310.61 252.41 343.15 202.30 375.33 C 192.91 381.25 178.55 373.05 180.04 361.78 C 179.92 295.20 180.08 228.62 179.96 162.04 C 178.60 154.65 184.84 147.95 191.73 146.44 Z" />
</g>
</svg>
