<?xml version="1.0" encoding="UTF-8" ?>
<!DOCTYPE svg PUBLIC "-//W3C//DTD SVG 1.1//EN" "http://www.w3.org/Graphics/SVG/1.1/DTD/svg11.dtd">
<svg width="512pt" height="512pt" viewBox="0 0 512 512" version="1.1" xmlns="http://www.w3.org/2000/svg">
<g id="#ffffffff">
<path fill="#ffffff" opacity="1.00" d=" M 35.37 0.00 L 41.04 0.00 C 51.89 -0.02 64.10 0.24 72.03 8.94 C 78.46 15.18 80.72 24.33 80.00 33.05 C 79.92 182.93 80.15 332.82 79.89 482.70 C 80.89 497.55 68.69 510.34 54.29 512.00 L 36.70 512.00 C 22.55 510.51 11.21 496.92 12.07 482.78 C 12.02 331.29 11.82 179.79 12.17 28.31 C 11.51 14.67 22.35 2.72 35.37 0.00 Z" />
<path fill="#ffffff" opacity="1.00" d=" M 456.47 0.00 L 466.46 0.00 C 473.02 1.96 480.06 3.95 484.85 9.17 C 496.50 20.45 500.18 37.28 500.04 52.96 C 499.96 186.29 500.00 319.63 500.02 452.96 C 499.85 469.72 499.08 488.78 486.69 501.60 C 476.11 513.54 457.78 512.70 443.85 508.21 C 429.63 502.42 417.89 492.12 405.00 484.00 C 318.58 424.40 231.99 365.04 145.57 305.43 C 130.99 296.18 118.65 281.81 115.09 264.61 C 111.15 241.78 124.21 219.94 143.02 208.01 C 237.28 142.90 331.66 77.97 426.07 13.08 C 435.13 6.65 445.44 1.78 456.47 0.00 Z" />
</g>
</svg>
