<?xml version="1.0" encoding="UTF-8" ?>
<!DOCTYPE svg PUBLIC "-//W3C//DTD SVG 1.1//EN" "http://www.w3.org/Graphics/SVG/1.1/DTD/svg11.dtd">
<svg width="512pt" height="512pt" viewBox="0 0 512 512" version="1.1" xmlns="http://www.w3.org/2000/svg">
<g id="#929292ff">
<path fill="#929292" opacity="1.00" d=" M 455.59 0.00 L 466.44 0.00 C 472.06 1.90 478.19 3.18 482.74 7.26 C 493.97 16.46 498.45 31.22 499.95 45.15 C 500.05 183.40 500.00 321.65 499.98 459.90 C 499.75 475.58 496.78 493.33 484.06 503.96 C 476.40 511.35 464.78 511.76 454.78 510.83 C 437.82 508.93 424.72 496.93 411.00 488.00 C 321.32 426.36 231.66 364.70 142.02 302.99 C 126.11 291.91 113.04 273.59 114.89 253.38 C 114.90 232.99 129.64 216.37 145.89 205.88 C 240.33 141.02 334.58 75.87 429.07 11.07 C 437.07 5.69 446.16 1.99 455.59 0.00 Z" />
<path fill="#929292" opacity="1.00" d=" M 31.48 1.33 C 40.95 0.29 50.63 0.77 60.09 1.64 C 71.50 5.34 80.75 16.83 79.97 29.13 C 79.96 180.67 80.15 332.22 79.87 483.76 C 80.50 497.93 68.69 509.40 55.39 512.00 L 34.68 512.00 C 21.68 508.82 11.25 496.46 12.04 482.82 C 11.94 332.90 12.05 182.98 11.98 33.06 C 10.43 19.79 18.05 4.90 31.48 1.33 Z" />
</g>
</svg>
