<?xml version="1.0" encoding="UTF-8" ?>
<!DOCTYPE svg PUBLIC "-//W3C//DTD SVG 1.1//EN" "http://www.w3.org/Graphics/SVG/1.1/DTD/svg11.dtd">
<svg width="512pt" height="512pt" viewBox="0 0 512 512" version="1.1" xmlns="http://www.w3.org/2000/svg">
<g id="#959595ff">
<path fill="#959595" opacity="1.00" d=" M 406.75 57.11 C 411.22 43.93 429.66 38.20 440.28 47.79 C 461.79 69.19 483.15 90.79 504.73 112.14 C 512.81 118.70 513.22 131.80 508.15 140.22 C 486.04 162.69 463.54 184.81 441.34 207.20 C 435.36 213.88 425.54 214.35 417.51 211.76 C 406.04 206.48 401.08 190.36 409.08 180.15 C 418.25 169.11 429.24 159.70 439.31 149.48 C 438.19 149.15 437.05 148.94 435.89 148.87 C 312.35 149.25 188.80 148.76 65.26 149.11 C 55.11 148.74 44.50 155.99 43.24 166.45 C 42.38 189.41 43.59 212.40 42.81 235.36 C 42.73 247.88 29.83 258.32 17.63 255.57 C 8.45 254.76 2.49 246.61 0.00 238.32 L 0.00 163.64 C 3.76 134.17 29.07 108.09 59.31 107.13 C 185.73 107.02 312.17 106.69 438.60 107.30 L 438.90 106.47 C 429.69 96.59 419.48 87.65 410.36 77.69 C 405.41 72.07 405.16 64.05 406.75 57.11 Z" />
<path fill="#959595" opacity="1.00" d=" M 469.19 276.64 C 469.18 262.49 485.38 251.78 498.31 257.54 C 505.93 259.65 509.63 266.77 512.00 273.70 L 512.00 348.23 C 508.26 376.04 485.87 401.25 457.40 404.49 C 430.96 405.72 404.46 404.64 378.00 405.00 C 276.44 404.57 174.84 405.87 73.30 404.34 C 79.32 413.91 89.18 420.74 96.79 429.16 C 104.83 435.87 110.12 447.37 104.82 457.50 C 99.37 470.09 80.70 473.64 71.26 463.66 C 49.63 442.35 28.36 420.67 6.76 399.34 C 3.22 396.27 1.15 392.00 0.00 387.54 L 0.00 380.39 C 1.35 376.29 3.13 372.17 6.26 369.12 C 27.84 347.79 49.22 326.23 70.68 304.78 C 78.45 296.64 93.01 297.30 100.40 305.61 C 108.39 313.43 107.88 327.53 100.24 335.38 C 91.08 344.45 81.98 353.58 72.69 362.51 C 73.81 362.85 74.95 363.05 76.11 363.13 C 199.64 362.75 323.18 363.24 446.71 362.89 C 456.91 363.37 467.26 355.83 468.79 345.55 C 469.59 322.59 468.42 299.59 469.19 276.64 Z" />
</g>
</svg>
