<?xml version="1.0" encoding="UTF-8" ?>
<!DOCTYPE svg PUBLIC "-//W3C//DTD SVG 1.1//EN" "http://www.w3.org/Graphics/SVG/1.1/DTD/svg11.dtd">
<svg width="512pt" height="512pt" viewBox="0 0 512 512" version="1.1" xmlns="http://www.w3.org/2000/svg">
<g id="#ffffffff">
<path fill="#ffffff" opacity="1.00" d=" M 411.21 50.14 C 418.24 41.45 432.73 40.57 440.83 48.26 C 462.08 69.60 483.36 90.92 504.73 112.15 C 514.22 120.12 513.75 137.49 503.73 144.89 C 483.14 165.21 462.79 185.76 442.34 206.21 C 434.80 215.67 418.01 216.00 410.66 206.27 C 402.82 198.54 403.41 184.77 411.33 177.26 C 420.40 167.75 429.92 158.67 439.32 149.48 C 434.72 148.18 429.85 149.17 425.18 148.94 C 305.20 149.16 185.23 148.81 65.26 149.11 C 55.11 148.75 44.51 155.99 43.23 166.45 C 42.39 189.41 43.58 212.41 42.82 235.38 C 42.63 247.81 29.98 258.50 17.66 255.52 C 8.77 254.25 1.97 246.99 0.00 238.39 L 0.00 165.59 C 2.46 133.67 31.48 105.44 63.94 106.93 C 188.82 107.29 313.71 106.57 438.60 107.29 L 438.90 106.46 C 430.12 97.17 420.65 88.53 411.78 79.32 C 404.21 71.85 403.35 57.71 411.21 50.14 Z" />
<path fill="#ffffff" opacity="1.00" d=" M 469.18 276.62 C 469.32 263.15 483.92 252.40 496.79 257.01 C 504.98 258.94 509.59 266.14 512.00 273.70 L 512.00 346.46 C 509.45 376.97 482.98 404.57 451.73 404.81 C 331.77 405.25 211.80 404.89 91.84 404.98 C 85.48 405.38 78.93 403.93 72.68 405.48 C 82.08 414.67 91.60 423.75 100.67 433.26 C 108.59 440.77 109.18 454.54 101.34 462.27 C 93.99 472.00 77.20 471.67 69.66 462.21 C 48.25 440.70 26.75 419.28 5.30 397.81 C 1.86 394.73 0.89 390.00 0.00 385.70 L 0.00 382.15 C 0.63 372.33 9.03 366.65 15.25 360.24 C 33.75 341.78 52.22 323.27 70.69 304.78 C 78.45 296.64 93.02 297.30 100.40 305.62 C 108.39 313.42 107.89 327.54 100.24 335.37 C 91.09 344.45 81.97 353.58 72.68 362.52 C 77.28 363.82 82.13 362.81 86.82 363.06 C 206.79 362.84 326.75 363.19 446.71 362.89 C 456.91 363.37 467.26 355.83 468.79 345.55 C 469.58 322.59 468.43 299.59 469.18 276.62 Z" />
</g>
</svg>
