<?xml version="1.0" encoding="UTF-8" ?>
<!DOCTYPE svg PUBLIC "-//W3C//DTD SVG 1.1//EN" "http://www.w3.org/Graphics/SVG/1.1/DTD/svg11.dtd">
<svg width="512pt" height="512pt" viewBox="0 0 512 512" version="1.1" xmlns="http://www.w3.org/2000/svg">
<g id="#ffffffff">
<path fill="#ffffff" opacity="1.00" d=" M 380.40 57.54 C 378.30 52.65 384.89 48.97 388.50 52.34 C 424.40 79.82 460.15 107.49 496.01 135.01 C 501.40 139.32 507.61 142.80 512.00 148.22 L 512.00 151.72 C 473.46 182.74 433.53 212.04 394.62 242.61 C 390.60 245.37 385.25 250.51 380.51 246.40 C 379.98 238.12 385.14 231.16 387.58 223.58 C 391.31 212.85 396.39 202.59 399.65 191.72 C 356.01 193.49 310.86 207.68 280.45 240.40 C 278.28 241.78 275.21 248.23 272.71 244.35 C 256.62 223.13 241.23 201.32 225.19 180.09 C 269.74 135.33 332.73 112.29 395.21 110.26 C 401.27 113.10 399.95 107.54 399.07 104.94 C 392.64 89.23 386.32 73.44 380.40 57.54 Z" />
<path fill="#ffffff" opacity="1.00" d=" M 0.00 92.98 C 30.64 92.48 61.41 96.00 91.02 103.96 C 133.88 115.67 173.45 139.73 202.67 173.32 C 238.61 211.31 260.77 262.03 304.81 292.19 C 332.67 311.05 366.54 318.38 399.67 320.45 C 396.06 308.56 390.63 297.27 386.45 285.56 C 384.17 279.23 380.38 273.28 380.19 266.37 C 382.50 262.22 388.22 264.34 391.17 266.75 C 431.26 298.15 472.32 328.37 512.00 360.26 L 512.00 363.71 C 510.81 365.12 509.62 366.54 508.19 367.72 C 467.85 398.18 428.18 429.56 387.86 460.04 C 384.17 462.86 378.43 458.93 380.40 454.46 C 386.25 438.82 392.40 423.24 398.80 407.80 C 399.45 405.99 400.23 404.02 399.54 402.10 C 360.48 400.53 321.15 392.45 285.96 375.03 C 250.53 358.53 221.29 331.10 197.43 300.58 C 172.67 269.81 153.28 233.97 121.98 209.02 C 87.95 181.75 42.58 173.83 0.00 175.00 L 0.00 92.98 Z" />
<path fill="#ffffff" opacity="1.00" d=" M 152.47 271.49 C 153.58 270.48 155.35 266.89 157.19 268.84 C 172.65 289.94 187.54 311.58 205.24 330.91 C 207.90 332.26 206.81 334.69 205.28 336.22 C 193.67 348.31 181.86 360.33 168.39 370.40 C 120.55 406.48 59.14 420.44 0.00 419.03 L 0.00 337.05 C 31.27 337.44 63.27 333.86 92.13 321.14 C 116.42 310.63 136.54 292.36 152.47 271.49 Z" />
</g>
</svg>
