<?xml version="1.0" encoding="UTF-8" ?>
<!DOCTYPE svg PUBLIC "-//W3C//DTD SVG 1.1//EN" "http://www.w3.org/Graphics/SVG/1.1/DTD/svg11.dtd">
<svg width="512pt" height="512pt" viewBox="0 0 512 512" version="1.1" xmlns="http://www.w3.org/2000/svg">
<g id="#959595ff">
<path fill="#959595" opacity="1.00" d=" M 382.05 51.90 C 385.53 49.49 389.41 52.89 392.02 54.92 C 425.47 80.86 459.12 106.54 492.60 132.43 C 499.04 137.68 506.50 141.86 512.00 148.18 L 512.00 151.71 C 473.28 182.89 433.16 212.34 394.04 243.03 C 390.22 245.80 384.56 252.02 380.66 246.11 C 379.93 238.24 385.17 231.02 387.59 223.58 C 391.32 212.82 396.43 202.56 399.67 191.65 C 376.30 193.26 352.68 196.73 331.01 206.02 C 309.37 214.52 290.58 229.01 274.94 246.02 C 271.23 243.39 268.91 239.35 266.16 235.82 C 252.74 217.08 238.86 198.63 225.23 180.08 C 270.76 134.16 335.72 111.49 399.56 109.95 C 400.22 106.91 398.71 104.03 397.64 101.28 C 391.83 87.85 386.96 74.05 381.34 60.54 C 380.34 57.83 379.04 53.84 382.05 51.90 Z" />
<path fill="#959595" opacity="1.00" d=" M 0.00 92.96 C 32.77 92.44 65.70 96.65 97.18 105.81 C 138.42 118.10 176.02 142.25 204.11 174.89 C 239.39 212.81 261.55 262.94 305.40 292.60 C 333.15 311.00 366.66 318.56 399.51 320.52 C 394.52 303.68 386.56 287.76 380.90 271.13 C 377.33 266.27 384.50 260.69 388.25 264.74 C 429.57 296.44 471.14 327.87 512.00 360.16 L 512.00 363.70 C 510.80 365.13 509.55 366.53 508.11 367.73 C 468.56 397.95 429.10 428.33 389.72 458.78 C 387.40 460.62 383.88 462.02 381.39 459.65 C 379.02 457.10 380.66 453.51 381.61 450.72 C 387.08 437.71 391.73 424.37 397.35 411.42 C 398.52 408.44 400.18 405.36 399.60 402.06 C 352.43 400.56 304.97 388.35 264.66 363.34 C 238.16 346.61 215.59 324.21 196.57 299.43 C 176.05 273.55 158.97 244.92 135.81 221.20 C 116.02 201.18 90.39 187.16 62.94 181.04 C 42.28 176.54 21.16 174.12 0.00 174.98 L 0.00 92.96 Z" />
<path fill="#959595" opacity="1.00" d=" M 152.49 271.54 C 153.53 270.10 156.01 266.57 157.66 269.39 C 173.27 291.27 189.09 313.07 207.00 333.16 C 182.08 364.03 148.13 388.15 110.62 401.61 C 75.32 414.52 37.47 419.57 0.00 419.05 L 0.00 337.04 C 32.93 337.45 66.95 333.57 96.84 318.84 C 118.97 308.00 137.72 291.12 152.49 271.54 Z" />
</g>
</svg>
