<svg xmlns="http://www.w3.org/2000/svg" xmlns:xlink="http://www.w3.org/1999/xlink" xmlns:lucid="lucid" width="1240" height="537"><g transform="translate(420 -80)" lucid:page-tab-id="0_0"><path d="M100 106c0-3.3 2.7-6 6-6h188c3.3 0 6 2.7 6 6v346c0 3.3-2.7 6-6 6H106c-3.3 0-6-2.7-6-6z" stroke="#ededed" stroke-width="3" fill-opacity="0"/><path d="M100 150.3h200" stroke="#ededed" stroke-width="3" fill="none"/><use xlink:href="#a" transform="matrix(1,0,0,1,108,108) translate(63.90111111111112 25.351555555555553)"/><use xlink:href="#b" transform="matrix(1,0,0,1,112,158.31022222222222) translate(0 29.20000000000002)"/><use xlink:href="#c" transform="matrix(1,0,0,1,112,158.31022222222222) translate(0 70.84444444444446)"/><use xlink:href="#d" transform="matrix(1,0,0,1,112,158.31022222222222) translate(0 112.4888888888889)"/><use xlink:href="#e" transform="matrix(1,0,0,1,112,158.31022222222222) translate(0 154.13333333333333)"/><use xlink:href="#f" transform="matrix(1,0,0,1,112,158.31022222222222) translate(0 195.77777777777777)"/><use xlink:href="#g" transform="matrix(1,0,0,1,112,158.31022222222222) translate(0 237.42222222222222)"/><use xlink:href="#h" transform="matrix(1,0,0,1,112,158.31022222222222) translate(0 279.06666666666666)"/><path d="M-180 106c0-3.3 2.7-6 6-6H14c3.3 0 6 2.7 6 6v304c0 3.3-2.7 6-6 6h-188c-3.3 0-6-2.7-6-6z" stroke="#ededed" stroke-width="3" fill-opacity="0"/><path d="M-180 150.3H20" stroke="#ededed" stroke-width="3" fill="none"/><use xlink:href="#i" transform="matrix(1,0,0,1,-172,108) translate(56.35877777777779 25.351555555555553)"/><use xlink:href="#j" transform="matrix(1,0,0,1,-168,158.31022222222222) translate(0 29.02222222222223)"/><use xlink:href="#k" transform="matrix(1,0,0,1,-168,158.31022222222222) translate(0 70.66666666666667)"/><use xlink:href="#e" transform="matrix(1,0,0,1,-168,158.31022222222222) translate(0 112.3111111111111)"/><use xlink:href="#l" transform="matrix(1,0,0,1,-168,158.31022222222222) translate(0 153.95555555555555)"/><use xlink:href="#m" transform="matrix(1,0,0,1,-168,158.31022222222222) translate(0 195.6)"/><use xlink:href="#n" transform="matrix(1,0,0,1,-168,158.31022222222222) translate(0 237.24444444444444)"/><path d="M-400 412c0-3.3 2.7-6 6-6h188c3.3 0 6 2.7 6 6v179c0 3.3-2.7 6-6 6h-188c-3.3 0-6-2.7-6-6z" stroke="#ededed" stroke-width="3" fill-opacity="0"/><path d="M-400 456.3h200" stroke="#ededed" stroke-width="3" fill="none"/><use xlink:href="#o" transform="matrix(1,0,0,1,-392,414) translate(61.11811111111112 25.351555555555553)"/><use xlink:href="#p" transform="matrix(1,0,0,1,-388,464.3102222222222) translate(0 28.988888888888898)"/><use xlink:href="#q" transform="matrix(1,0,0,1,-388,464.3102222222222) translate(0 70.63333333333334)"/><use xlink:href="#r" transform="matrix(1,0,0,1,-388,464.3102222222222) translate(0 112.27777777777777)"/><path d="M-300 403V264c0-3.3 2.7-6 6-6h81.38" stroke="#ededed" stroke-width="3" fill="none"/><path d="M-298.5 404.5h-3v-1.54h3z" fill="#ededed"/><path d="M-183.62 258l-14.85 14.85-15.15-14.85 15.15-14.85z" stroke="#ededed" stroke-width="3" fill="#ededed"/><path d="M23 258h44.38" stroke="#ededed" stroke-width="3" fill="none"/><path d="M23.04 259.5H21.5v-3h1.54z" fill="#ededed"/><path d="M96.38 258l-14.85 14.85L66.38 258l15.15-14.85z" stroke="#ededed" stroke-width="3" fill="#ededed"/><path d="M520 106c0-3.3 2.7-6 6-6h188c3.3 0 6 2.7 6 6v179c0 3.3-2.7 6-6 6H526c-3.3 0-6-2.7-6-6z" stroke="#ededed" stroke-width="3" fill-opacity="0"/><path d="M520 150.3h200" stroke="#ededed" stroke-width="3" fill="none"/><use xlink:href="#s" transform="matrix(1,0,0,1,528,108.00000000000003) translate(67.24877777777778 25.351555555555553)"/><use xlink:href="#t" transform="matrix(1,0,0,1,532,158.31022222222225) translate(0 28.988888888888898)"/><use xlink:href="#u" transform="matrix(1,0,0,1,532,158.31022222222225) translate(0 70.63333333333334)"/><use xlink:href="#v" transform="matrix(1,0,0,1,532,158.31022222222225) translate(0 112.27777777777777)"/><path d="M517 253.37H303" stroke="#ededed" stroke-width="3" fill="none"/><path d="M518.5 254.87h-1.54v-3h1.54zM303.04 254.87h-1.54v-3h1.54z" fill="#ededed"/><use xlink:href="#w" transform="matrix(1,0,0,1,468.8180720457756,207.72653770202055) translate(0 28.955555555555552)"/><use xlink:href="#x" transform="matrix(1,0,0,1,468.8180720457756,207.72653770202055) translate(17.333333333333336 28.955555555555552)"/><use xlink:href="#y" transform="matrix(1,0,0,1,468.8180720457756,207.72653770202055) translate(31.822222222222223 28.955555555555552)"/><use xlink:href="#w" transform="matrix(1,0,0,1,311.67967109172446,207.7265377020205) translate(0 28.955555555555552)"/><use xlink:href="#x" transform="matrix(1,0,0,1,311.67967109172446,207.7265377020205) translate(17.333333333333336 28.955555555555552)"/><use xlink:href="#y" transform="matrix(1,0,0,1,311.67967109172446,207.7265377020205) translate(31.822222222222223 28.955555555555552)"/><use xlink:href="#z" transform="matrix(1,0,0,1,385.6111111111111,207.72653770202055) translate(0 28.955555555555552)"/><path d="M600 326c0-3.3 2.7-6 6-6h188c3.3 0 6 2.7 6 6v179c0 3.3-2.7 6-6 6H606c-3.3 0-6-2.7-6-6z" stroke="#ededed" stroke-width="3" fill-opacity="0"/><path d="M600 370.3h200" stroke="#ededed" stroke-width="3" fill="none"/><use xlink:href="#A" transform="matrix(1,0,0,1,608,328) translate(50.98100000000001 25.351555555555553)"/><use xlink:href="#B" transform="matrix(1,0,0,1,612,378.3102222222222) translate(0 28.988888888888898)"/><use xlink:href="#C" transform="matrix(1,0,0,1,612,378.3102222222222) translate(0 70.63333333333334)"/><use xlink:href="#D" transform="matrix(1,0,0,1,612,378.3102222222222) translate(0 112.27777777777777)"/><path d="M763.57 287.38V201.5c0-3.3-2.7-6-6-6H723" stroke="#ededed" stroke-width="3" fill="none"/><path d="M763.57 316.38l-14.85-14.85 14.85-15.15 14.85 15.15z" stroke="#ededed" stroke-width="3" fill="#ededed"/><path d="M723.04 197h-1.54v-3h1.54z" fill="#ededed"/><path d="M303 356.45h294" stroke="#ededed" stroke-width="3" fill="none"/><path d="M303.04 357.95h-1.54v-3h1.54zM598.5 357.95h-1.54v-3h1.54z" fill="#ededed"/><g><use xlink:href="#E" transform="matrix(1,0,0,1,310.1978203825949,310.38881660411204) translate(0 29.245111111111104)"/><use xlink:href="#F" transform="matrix(1,0,0,1,310.1978203825949,310.38881660411204) translate(17.506666666666664 29.245111111111104)"/><use xlink:href="#G" transform="matrix(1,0,0,1,310.1978203825949,310.38881660411204) translate(32.14044444444444 29.245111111111104)"/></g><g><use xlink:href="#E" transform="matrix(1,0,0,1,550.0995314781233,310.38881660411204) translate(0 29.245111111111104)"/><use xlink:href="#F" transform="matrix(1,0,0,1,550.0995314781233,310.38881660411204) translate(17.506666666666664 29.245111111111104)"/><use xlink:href="#G" transform="matrix(1,0,0,1,550.0995314781233,310.38881660411204) translate(32.14044444444444 29.245111111111104)"/></g><g><use xlink:href="#H" transform="matrix(1,0,0,1,378.15433527057564,310.8052610485565) translate(0 28.955555555555552)"/></g><path d="M340 426c0-3.3 2.7-6 6-6h188c3.3 0 6 2.7 6 6v165c0 3.3-2.7 6-6 6H346c-3.3 0-6-2.7-6-6z" stroke="#ededed" stroke-width="3" fill-opacity="0"/><path d="M340 470.3h200" stroke="#ededed" stroke-width="3" fill="none"/><g><use xlink:href="#I" transform="matrix(1,0,0,1,348,428) translate(14.465888888888912 25.351555555555553)"/></g><g><use xlink:href="#J" transform="matrix(1,0,0,1,352,478.3102222222222) translate(0 42.81111111111112)"/><use xlink:href="#K" transform="matrix(1,0,0,1,352,478.3102222222222) translate(0 84.45555555555555)"/></g><path d="M337 508.5H206c-3.3 0-6-2.7-6-6V461" stroke="#ededed" stroke-width="3" fill="none"/><path d="M338.5 510h-1.54v-3h1.54zM201.5 461.04h-3v-1.54h3z" fill="#ededed"/><g><use xlink:href="#L" transform="matrix(1,0,0,1,314.57071099789954,462.85555555555555) translate(0 28.955555555555552)"/></g><g><use xlink:href="#w" transform="matrix(1,0,0,1,150.84444444444443,462.52993555593304) translate(0 28.955555555555552)"/><use xlink:href="#x" transform="matrix(1,0,0,1,150.84444444444443,462.52993555593304) translate(17.333333333333336 28.955555555555552)"/><use xlink:href="#y" transform="matrix(1,0,0,1,150.84444444444443,462.52993555593304) translate(31.822222222222223 28.955555555555552)"/></g><g><use xlink:href="#M" transform="matrix(1,0,0,1,224.91474666763656,512.5) translate(0 28.955555555555552)"/></g><path d="M517 168.7H303" stroke="#ededed" stroke-width="3" fill="none"/><path d="M518.5 170.2h-1.54v-3h1.54zM303.04 170.2h-1.54v-3h1.54z" fill="#ededed"/><g><use xlink:href="#w" transform="matrix(1,0,0,1,467.80530386559974,123.05170714234438) translate(0 28.955555555555552)"/><use xlink:href="#x" transform="matrix(1,0,0,1,467.80530386559974,123.05170714234438) translate(17.333333333333336 28.955555555555552)"/><use xlink:href="#N" transform="matrix(1,0,0,1,467.80530386559974,123.05170714234438) translate(31.822222222222223 28.955555555555552)"/></g><g><use xlink:href="#w" transform="matrix(1,0,0,1,311.38376937938955,123.05170714234438) translate(0 28.955555555555552)"/><use xlink:href="#x" transform="matrix(1,0,0,1,311.38376937938955,123.05170714234438) translate(17.333333333333336 28.955555555555552)"/><use xlink:href="#y" transform="matrix(1,0,0,1,311.38376937938955,123.05170714234438) translate(31.822222222222223 28.955555555555552)"/></g><g><use xlink:href="#M" transform="matrix(1,0,0,1,373.26666666666665,123.05170714234438) translate(0 28.955555555555552)"/></g><defs><path fill="#da3145" d="M215 0C105 0 42-67 49-184c0-14 7-21 21-21h85c17 0 23 11 21 29-7 72 50 67 117 66 58 1 71-22 70-83-5-72-92-64-157-75-106-18-158-76-158-211 0-103 63-165 166-164h100c110 0 174 66 167 183 0 14-7 21-21 21h-85c-16 0-22-10-21-27 6-69-42-68-109-67-65-2-71 28-70 95 0 31 27 49 82 54 140 10 233 51 233 220C490-61 427 1 324 0H215" id="O"/><path fill="#da3145" d="M464-163C465-60 402 1 299 0h-89C105 1 44-58 45-163v-184c-1-105 60-164 165-163h89c103-1 166 60 165 163v184zm-293-4c-7 64 50 59 109 58 43-1 58-15 59-58v-176c6-64-50-59-110-58-43 1-57 15-58 58v176" id="P"/><path fill="#da3145" d="M346-341c4-58-38-59-95-59-46 0-69 25-69 76v303c0 14-7 21-21 21H76C62 0 55-7 55-21v-468c0-14 7-21 21-21h85c27-2 20 30 21 54h4c17-45 64-54 130-54 105 0 157 54 157 163v326c0 14-7 21-22 21h-84c-14 0-21-7-21-21v-320" id="Q"/><path fill="#da3145" d="M333-78c-17 42-69 55-131 55C99-23 46-82 46-186v-161c-1-105 60-164 165-163h231c15 0 22 7 22 21V4c1 103-62 163-165 162H107c-37 1-15-59-21-89 0-14 7-21 21-21h171c74 9 57-70 59-134h-4zM173-192c-5 59 38 58 95 58 46 0 69-25 69-75v-180c0-7-4-11-12-11-67 5-152-22-152 59v149" id="R"/><g id="a"><use transform="matrix(0.026888888888888882,0,0,0.026888888888888882,0,0)" xlink:href="#O"/><use transform="matrix(0.026888888888888882,0,0,0.026888888888888882,14.493111111111107,0)" xlink:href="#P"/><use transform="matrix(0.026888888888888882,0,0,0.026888888888888882,28.17955555555555,0)" xlink:href="#Q"/><use transform="matrix(0.026888888888888882,0,0,0.026888888888888882,42.24244444444443,0)" xlink:href="#R"/></g><path fill="#ededed" d="M422-146C428 38 214 22 52-9l4-65c78 11 135 17 172 17 71-1 119-17 119-82 0-77-71-74-140-87-93-18-158-30-162-134-7-178 212-159 361-131l-2 64c-72-11-128-16-169-16-67 1-115 15-115 74 0 73 75 67 139 81 96 21 160 33 163 142" id="S"/><path fill="#ededed" d="M264 10C98 10 48-79 50-247c-2-169 48-265 214-263 166-2 215 94 214 263 2 168-48 257-214 257zm1-65c119 0 136-70 136-192 0-124-15-200-136-198-121-2-138 73-138 198 0 122 18 192 138 192" id="T"/><path fill="#ededed" d="M396-262c-2-106-3-180-103-181-54 0-112 18-146 37V0H72v-500h74v35c52-28 91-44 161-45 145-1 162 97 163 246V0h-74v-262" id="U"/><path fill="#ededed" d="M255 235C121 233 54 210 50 90c0-77 34-92 79-130-18-11-28-38-28-65 4-37 13-42 34-83-53-23-79-73-79-150 1-120 66-172 189-172 31 0 65 4 102 13l148-4v64l-95-2c24 24 33 55 33 104 6 143-100 176-242 161-8 21-17 38-18 61 0 53 67 42 123 42 119 0 192 21 191 139-4 133-84 166-232 167zm-10-465c82-1 112-28 113-110-1-80-32-108-112-109-82 1-114 29-115 110 1 81 33 108 114 109zm17 402c98 0 145-13 149-100 8-111-140-66-231-82-36 30-56 36-56 90 0 81 47 92 138 92" id="V"/><path fill="#ededed" d="M102 92h428v66H102V92" id="W"/><path fill="#ededed" d="M72-500h74V0H72v-500zm0-200h74v87H72v-87" id="X"/><path fill="#ededed" d="M227 10C85 7 52-87 50-241c2-178 46-265 213-269 38 0 78 4 119 13v-221h74V0h-74v-34C331-5 279 10 227 10zM127-247c0 112 15 186 114 190 51 0 107-20 141-37v-339c-43-8-81-12-113-12-119 3-142 69-142 198" id="Y"/><g id="b"><use transform="matrix(0.022222222222222223,0,0,0.022222222222222223,0,0)" xlink:href="#S"/><use transform="matrix(0.022222222222222223,0,0,0.022222222222222223,10.333333333333334,0)" xlink:href="#T"/><use transform="matrix(0.022222222222222223,0,0,0.022222222222222223,22.06666666666667,0)" xlink:href="#U"/><use transform="matrix(0.022222222222222223,0,0,0.022222222222222223,34,0)" xlink:href="#V"/><use transform="matrix(0.022222222222222223,0,0,0.022222222222222223,45.422222222222224,0)" xlink:href="#W"/><use transform="matrix(0.022222222222222223,0,0,0.022222222222222223,59.46666666666667,0)" xlink:href="#X"/><use transform="matrix(0.022222222222222223,0,0,0.022222222222222223,64.17777777777778,0)" xlink:href="#Y"/><path fill="#ededed" d="M-1.1 2.22h78.15v1.1H-1.1z"/></g><path fill="#ededed" d="M231 11C117 13 98-56 98-172v-263H27v-65h71v-153h74v153h159v65H172v239c1 82-4 145 72 140l89-6 5 62c-47 7-83 11-107 11" id="Z"/><path fill="#ededed" d="M78-718h75V0H78v-718" id="aa"/><path fill="#ededed" d="M259 10C99 8 52-73 50-237c1-171 51-270 211-273 162-3 214 121 195 291H126C101-33 274-45 441-65l2 59C369 5 308 10 259 10zm126-289c-1-110-24-168-124-168-101 0-134 61-136 168h260" id="ab"/><g id="c"><use transform="matrix(0.022222222222222223,0,0,0.022222222222222223,0,0)" xlink:href="#S"/><use transform="matrix(0.022222222222222223,0,0,0.022222222222222223,10.333333333333334,0)" xlink:href="#T"/><use transform="matrix(0.022222222222222223,0,0,0.022222222222222223,22.06666666666667,0)" xlink:href="#U"/><use transform="matrix(0.022222222222222223,0,0,0.022222222222222223,34,0)" xlink:href="#V"/><use transform="matrix(0.022222222222222223,0,0,0.022222222222222223,45.422222222222224,0)" xlink:href="#W"/><use transform="matrix(0.022222222222222223,0,0,0.022222222222222223,59.13333333333333,0)" xlink:href="#Z"/><use transform="matrix(0.022222222222222223,0,0,0.022222222222222223,66.93333333333334,0)" xlink:href="#X"/><use transform="matrix(0.022222222222222223,0,0,0.022222222222222223,71.44444444444446,0)" xlink:href="#Z"/><use transform="matrix(0.022222222222222223,0,0,0.022222222222222223,79.24444444444445,0)" xlink:href="#aa"/><use transform="matrix(0.022222222222222223,0,0,0.022222222222222223,84.24444444444445,0)" xlink:href="#ab"/></g><path fill="#ededed" d="M181 10C87 10 40-46 40-141c2-104 53-140 153-150l157-15c6-80-11-142-82-138-54 0-120 4-197 13l-3-57c71-15 136-22 195-22 114 1 161 48 162 161v256c2 25 21 39 58 44l-3 59c-53 0-92-13-119-40-59 27-119 40-180 40zm-64-155c0 138 152 89 233 61v-165c-93 19-233-17-233 104" id="ac"/><path fill="#ededed" d="M475-253C479-66 420 14 234 9 181 9 124 5 72-1v-717h74v243c52-23 103-35 152-35 150-1 176 103 177 257zM242-57c130 3 159-66 157-198-1-111-12-188-118-188-37 0-82 10-135 29v352c48 3 80 5 96 5" id="ad"/><path fill="#ededed" d="M228 10C82 11 67-88 67-239v-261h75v260c3 108-2 184 102 183 45 0 92-12 140-37v-406h75V0h-75v-35C333-7 299 9 228 10" id="ae"/><path fill="#ededed" d="M386-258c-3-107 1-184-100-185-52 0-107 17-139 37V0H72v-500h74v35c82-56 217-66 276 6 46-27 117-51 189-51 140 0 158 101 158 246V0h-75v-262c-2-105-1-181-101-181-54 0-111 18-145 37 23 85 9 289 13 406h-75v-258" id="af"/><g id="d"><use transform="matrix(0.022222222222222223,0,0,0.022222222222222223,0,0)" xlink:href="#ac"/><use transform="matrix(0.022222222222222223,0,0,0.022222222222222223,11.133333333333335,0)" xlink:href="#aa"/><use transform="matrix(0.022222222222222223,0,0,0.022222222222222223,16.26666666666667,0)" xlink:href="#ad"/><use transform="matrix(0.022222222222222223,0,0,0.022222222222222223,27.955555555555563,0)" xlink:href="#ae"/><use transform="matrix(0.022222222222222223,0,0,0.022222222222222223,39.75555555555556,0)" xlink:href="#af"/><use transform="matrix(0.022222222222222223,0,0,0.022222222222222223,58.33333333333334,0)" xlink:href="#W"/><use transform="matrix(0.022222222222222223,0,0,0.022222222222222223,72.3777777777778,0)" xlink:href="#X"/><use transform="matrix(0.022222222222222223,0,0,0.022222222222222223,77.0888888888889,0)" xlink:href="#Y"/></g><path fill="#ededed" d="M72-500h74v68c57-39 118-66 183-79v76c-60 12-138 42-182 68V0H72v-500" id="ag"/><g id="e"><use transform="matrix(0.022222222222222223,0,0,0.022222222222222223,0,0)" xlink:href="#ac"/><use transform="matrix(0.022222222222222223,0,0,0.022222222222222223,11.133333333333335,0)" xlink:href="#ag"/><use transform="matrix(0.022222222222222223,0,0,0.022222222222222223,18.822222222222223,0)" xlink:href="#Z"/><use transform="matrix(0.022222222222222223,0,0,0.022222222222222223,26.622222222222224,0)" xlink:href="#X"/><use transform="matrix(0.022222222222222223,0,0,0.022222222222222223,31.46666666666667,0)" xlink:href="#S"/><use transform="matrix(0.022222222222222223,0,0,0.022222222222222223,41.800000000000004,0)" xlink:href="#Z"/><use transform="matrix(0.022222222222222223,0,0,0.022222222222222223,49.60000000000001,0)" xlink:href="#W"/><use transform="matrix(0.022222222222222223,0,0,0.022222222222222223,63.64444444444446,0)" xlink:href="#X"/><use transform="matrix(0.022222222222222223,0,0,0.022222222222222223,68.35555555555557,0)" xlink:href="#Y"/></g><path fill="#ededed" d="M252 10C91 12 50-86 51-250c4-154 36-263 195-261 59 1 87 5 149 16l-3 61c-53-6-93-9-121-9-124-3-143 69-143 195-1 126 23 194 147 191l118-9 3 62c-64 9-112 14-144 14" id="ah"/><g id="f"><use transform="matrix(0.022222222222222223,0,0,0.022222222222222223,0,0)" xlink:href="#S"/><use transform="matrix(0.022222222222222223,0,0,0.022222222222222223,10.333333333333334,0)" xlink:href="#Z"/><use transform="matrix(0.022222222222222223,0,0,0.022222222222222223,18.133333333333333,0)" xlink:href="#ag"/><use transform="matrix(0.022222222222222223,0,0,0.022222222222222223,25.6,0)" xlink:href="#ab"/><use transform="matrix(0.022222222222222223,0,0,0.022222222222222223,36.82222222222222,0)" xlink:href="#ac"/><use transform="matrix(0.022222222222222223,0,0,0.022222222222222223,47.955555555555556,0)" xlink:href="#af"/><use transform="matrix(0.022222222222222223,0,0,0.022222222222222223,66.53333333333333,0)" xlink:href="#W"/><use transform="matrix(0.022222222222222223,0,0,0.022222222222222223,80.44444444444443,0)" xlink:href="#ah"/><use transform="matrix(0.022222222222222223,0,0,0.022222222222222223,89.99999999999997,0)" xlink:href="#T"/><use transform="matrix(0.022222222222222223,0,0,0.022222222222222223,101.73333333333329,0)" xlink:href="#ae"/><use transform="matrix(0.022222222222222223,0,0,0.022222222222222223,113.5333333333333,0)" xlink:href="#U"/><use transform="matrix(0.022222222222222223,0,0,0.022222222222222223,125.39999999999999,0)" xlink:href="#Z"/></g><path fill="#ededed" d="M477-253c1 171-52 265-221 263-37 0-74-4-109-11v223H72v-722h74v36c46-27 87-45 153-46 143 5 176 99 178 257zM257-55c116-3 140-70 144-195 5-140-47-221-177-184-31 9-54 18-77 31v337c49 7 86 11 110 11" id="ai"/><path fill="#ededed" d="M241 0h-74L25-500h75L225-65h33l126-435h75L251 222h-75" id="aj"/><g id="g"><use transform="matrix(0.022222222222222223,0,0,0.022222222222222223,0,0)" xlink:href="#ae"/><use transform="matrix(0.022222222222222223,0,0,0.022222222222222223,11.8,0)" xlink:href="#ai"/><use transform="matrix(0.022222222222222223,0,0,0.022222222222222223,23.511111111111113,0)" xlink:href="#aa"/><use transform="matrix(0.022222222222222223,0,0,0.022222222222222223,28.511111111111113,0)" xlink:href="#T"/><use transform="matrix(0.022222222222222223,0,0,0.022222222222222223,40.24444444444445,0)" xlink:href="#ac"/><use transform="matrix(0.022222222222222223,0,0,0.022222222222222223,51.37777777777778,0)" xlink:href="#Y"/><use transform="matrix(0.022222222222222223,0,0,0.022222222222222223,63,0)" xlink:href="#ab"/><use transform="matrix(0.022222222222222223,0,0,0.022222222222222223,74.22222222222223,0)" xlink:href="#Y"/><use transform="matrix(0.022222222222222223,0,0,0.022222222222222223,85.97777777777779,0)" xlink:href="#W"/><use transform="matrix(0.022222222222222223,0,0,0.022222222222222223,100.02222222222224,0)" xlink:href="#ad"/><use transform="matrix(0.022222222222222223,0,0,0.022222222222222223,111.51111111111112,0)" xlink:href="#aj"/></g><path fill="#ededed" d="M232-662c-72 1-62 85-64 162h145v65H168V0H93v-435H30v-65h63c-3-133 5-234 135-228l101 7-1 62c-57-2-66-2-96-3" id="ak"/><g id="h"><use transform="matrix(0.022222222222222223,0,0,0.022222222222222223,0,0)" xlink:href="#ak"/><use transform="matrix(0.022222222222222223,0,0,0.022222222222222223,7.355555555555556,0)" xlink:href="#X"/><use transform="matrix(0.022222222222222223,0,0,0.022222222222222223,12.200000000000001,0)" xlink:href="#aa"/><use transform="matrix(0.022222222222222223,0,0,0.022222222222222223,17.200000000000003,0)" xlink:href="#ab"/></g><path fill="#da3145" d="M146-4C118 6 72-2 36 0 24 0 20-7 24-21l158-601c5-14 15-21 30-21h133c17 0 27 7 30 21L533-21c4 14 0 21-12 21-36-2-82 5-111-4-14-39-22-86-34-127H181c-12 41-20 89-35 127zm131-518l-72 289h148l-72-289h-4" id="al"/><path fill="#da3145" d="M166 0H81C67 0 60-7 60-21v-661c0-14 7-21 21-21h85c14 0 21 7 21 21v661c0 14-7 21-21 21" id="am"/><path fill="#da3145" d="M354-343c5-61-44-59-103-59-46 0-69 25-69 76v205c0 7 4 11 11 11 68-6 161 25 161-59v-174zm127 180C482-58 421 1 316 0H76C62 0 55-7 55-21v-661c0-14 7-21 21-21h85c14 0 21 7 21 21v225h4c16-42 69-55 130-55 105 0 166 58 165 163v186" id="an"/><path fill="#da3145" d="M337-54C320-12 268 0 206 0 103 0 50-59 50-163v-326c0-14 7-21 21-21h85c14 0 21 7 21 21v320c-4 58 38 59 95 59 46 0 69-25 69-76v-303c0-14 7-21 21-21h84c15 0 22 7 22 21v468c0 14-7 21-22 21h-84c-27 2-20-30-21-54h-4" id="ao"/><path fill="#da3145" d="M341-341c3-56-34-59-90-59-46 0-69 25-69 76v303c0 14-7 21-21 21H76C62 0 55-7 55-21v-468c0-14 7-21 21-21h85c27-2 20 30 21 54h4c19-39 71-54 134-54 58 0 100 21 125 64 27-50 73-64 146-64 103 0 156 59 156 163v326c0 14-7 21-21 21h-85c-14 0-21-7-21-21v-320c3-53-29-59-83-59-46 0-69 26-69 77v302c0 14-7 21-22 21h-84c-14 0-21-7-21-21v-320" id="ap"/><g id="i"><use transform="matrix(0.026888888888888882,0,0,0.026888888888888882,0,0)" xlink:href="#al"/><use transform="matrix(0.026888888888888882,0,0,0.026888888888888882,14.977111111111107,0)" xlink:href="#am"/><use transform="matrix(0.026888888888888882,0,0,0.026888888888888882,21.618666666666662,0)" xlink:href="#an"/><use transform="matrix(0.026888888888888882,0,0,0.026888888888888882,35.76222222222221,0)" xlink:href="#ao"/><use transform="matrix(0.026888888888888882,0,0,0.026888888888888882,49.8251111111111,0)" xlink:href="#ap"/></g><g id="j"><use transform="matrix(0.022222222222222223,0,0,0.022222222222222223,0,0)" xlink:href="#ac"/><use transform="matrix(0.022222222222222223,0,0,0.022222222222222223,11.133333333333335,0)" xlink:href="#aa"/><use transform="matrix(0.022222222222222223,0,0,0.022222222222222223,16.26666666666667,0)" xlink:href="#ad"/><use transform="matrix(0.022222222222222223,0,0,0.022222222222222223,27.955555555555563,0)" xlink:href="#ae"/><use transform="matrix(0.022222222222222223,0,0,0.022222222222222223,39.75555555555556,0)" xlink:href="#af"/><use transform="matrix(0.022222222222222223,0,0,0.022222222222222223,58.33333333333334,0)" xlink:href="#W"/><use transform="matrix(0.022222222222222223,0,0,0.022222222222222223,72.3777777777778,0)" xlink:href="#X"/><use transform="matrix(0.022222222222222223,0,0,0.022222222222222223,77.0888888888889,0)" xlink:href="#Y"/><path fill="#ededed" d="M-1.1 2.22h91.06v1.1H-1.1z"/></g><g id="k"><use transform="matrix(0.022222222222222223,0,0,0.022222222222222223,0,0)" xlink:href="#ac"/><use transform="matrix(0.022222222222222223,0,0,0.022222222222222223,11.133333333333335,0)" xlink:href="#aa"/><use transform="matrix(0.022222222222222223,0,0,0.022222222222222223,16.26666666666667,0)" xlink:href="#ad"/><use transform="matrix(0.022222222222222223,0,0,0.022222222222222223,27.955555555555563,0)" xlink:href="#ae"/><use transform="matrix(0.022222222222222223,0,0,0.022222222222222223,39.75555555555556,0)" xlink:href="#af"/><use transform="matrix(0.022222222222222223,0,0,0.022222222222222223,58.33333333333334,0)" xlink:href="#W"/><use transform="matrix(0.022222222222222223,0,0,0.022222222222222223,72.04444444444445,0)" xlink:href="#Z"/><use transform="matrix(0.022222222222222223,0,0,0.022222222222222223,79.84444444444445,0)" xlink:href="#X"/><use transform="matrix(0.022222222222222223,0,0,0.022222222222222223,84.35555555555557,0)" xlink:href="#Z"/><use transform="matrix(0.022222222222222223,0,0,0.022222222222222223,92.15555555555557,0)" xlink:href="#aa"/><use transform="matrix(0.022222222222222223,0,0,0.022222222222222223,97.15555555555557,0)" xlink:href="#ab"/></g><g id="l"><use transform="matrix(0.022222222222222223,0,0,0.022222222222222223,0,0)" xlink:href="#ag"/><use transform="matrix(0.022222222222222223,0,0,0.022222222222222223,7.466666666666667,0)" xlink:href="#ab"/><use transform="matrix(0.022222222222222223,0,0,0.022222222222222223,18.68888888888889,0)" xlink:href="#aa"/><use transform="matrix(0.022222222222222223,0,0,0.022222222222222223,23.68888888888889,0)" xlink:href="#ab"/><use transform="matrix(0.022222222222222223,0,0,0.022222222222222223,34.91111111111111,0)" xlink:href="#ac"/><use transform="matrix(0.022222222222222223,0,0,0.022222222222222223,46.044444444444444,0)" xlink:href="#S"/><use transform="matrix(0.022222222222222223,0,0,0.022222222222222223,56.37777777777778,0)" xlink:href="#ab"/><use transform="matrix(0.022222222222222223,0,0,0.022222222222222223,67.60000000000001,0)" xlink:href="#W"/><use transform="matrix(0.022222222222222223,0,0,0.022222222222222223,81.51111111111112,0)" xlink:href="#Y"/><use transform="matrix(0.022222222222222223,0,0,0.022222222222222223,93.26666666666667,0)" xlink:href="#ac"/><use transform="matrix(0.022222222222222223,0,0,0.022222222222222223,104.40000000000002,0)" xlink:href="#Z"/><use transform="matrix(0.022222222222222223,0,0,0.022222222222222223,112.20000000000003,0)" xlink:href="#ab"/></g><path fill="#ededed" d="M72-718h75v424l78-4 143-202h85L290-270 460 0h-85L226-232l-79 3V0H72v-718" id="aq"/><g id="m"><use transform="matrix(0.022222222222222223,0,0,0.022222222222222223,0,0)" xlink:href="#Z"/><use transform="matrix(0.022222222222222223,0,0,0.022222222222222223,7.800000000000001,0)" xlink:href="#ag"/><use transform="matrix(0.022222222222222223,0,0,0.022222222222222223,15.488888888888889,0)" xlink:href="#ac"/><use transform="matrix(0.022222222222222223,0,0,0.022222222222222223,26.622222222222227,0)" xlink:href="#ah"/><use transform="matrix(0.022222222222222223,0,0,0.022222222222222223,36.31111111111112,0)" xlink:href="#aq"/><use transform="matrix(0.022222222222222223,0,0,0.022222222222222223,46.95555555555557,0)" xlink:href="#W"/><use transform="matrix(0.022222222222222223,0,0,0.022222222222222223,60.86666666666668,0)" xlink:href="#ah"/><use transform="matrix(0.022222222222222223,0,0,0.022222222222222223,70.42222222222223,0)" xlink:href="#T"/><use transform="matrix(0.022222222222222223,0,0,0.022222222222222223,82.15555555555557,0)" xlink:href="#ae"/><use transform="matrix(0.022222222222222223,0,0,0.022222222222222223,93.95555555555556,0)" xlink:href="#U"/><use transform="matrix(0.022222222222222223,0,0,0.022222222222222223,105.82222222222225,0)" xlink:href="#Z"/></g><path fill="#ededed" d="M25-500h80L222-65h37l121-435h77L316 0H166" id="ar"/><g id="n"><use transform="matrix(0.022222222222222223,0,0,0.022222222222222223,0,0)" xlink:href="#ah"/><use transform="matrix(0.022222222222222223,0,0,0.022222222222222223,9.555555555555557,0)" xlink:href="#T"/><use transform="matrix(0.022222222222222223,0,0,0.022222222222222223,21.088888888888892,0)" xlink:href="#ar"/><use transform="matrix(0.022222222222222223,0,0,0.022222222222222223,31.64444444444445,0)" xlink:href="#ab"/><use transform="matrix(0.022222222222222223,0,0,0.022222222222222223,42.866666666666674,0)" xlink:href="#ag"/><use transform="matrix(0.022222222222222223,0,0,0.022222222222222223,50.555555555555564,0)" xlink:href="#W"/><use transform="matrix(0.022222222222222223,0,0,0.022222222222222223,64.60000000000001,0)" xlink:href="#ac"/><use transform="matrix(0.022222222222222223,0,0,0.022222222222222223,75.73333333333335,0)" xlink:href="#ag"/><use transform="matrix(0.022222222222222223,0,0,0.022222222222222223,83.42222222222223,0)" xlink:href="#Z"/></g><path fill="#da3145" d="M340-420c0 16-4 21-20 20-77-4-138-5-138 78v301c0 14-7 21-21 21H76C62 0 55-7 55-21v-468c0-14 7-21 21-21h85c28-2 20 31 21 55h4c17-43 71-59 134-55 35 2 20 59 20 90" id="as"/><path fill="#da3145" d="M243 0C139 5 76-58 77-162v-227c-3-30-76 11-72-31 3-32-15-87 21-90 18-1 51 9 51-11v-95c0-14 7-21 22-21h84c14 0 21 7 21 21v95c0 7 4 11 12 11 34 0 99-17 99 21v69c0 15-5 20-21 20h-78c-8 0-12 4-12 11v221c-4 58 43 61 100 58 36 1 18 58 21 90 4 34-53 19-82 20" id="at"/><path fill="#da3145" d="M60-596v-87c0-13 7-20 20-20h87c13 0 20 6 20 19v88c0 13-7 20-20 20H80c-13 0-20-7-20-20zM187-21c0 17-4 21-20 21H81C67 0 60-7 60-21v-468c0-14 7-21 20-21h86c14 0 21 7 21 21v468" id="au"/><path fill="#da3145" d="M375-489c-6 29 16 86-20 85H216c-73 0-57 53-6 75 73 57 196 72 195 195C405-45 353 0 248 0H58C24 0 38-55 38-85c0-15 4-20 20-20h167c70 0 59-61 8-81-75-54-196-68-198-188 1-98 52-136 153-136h167c13 0 20 7 20 21" id="av"/><g id="o"><use transform="matrix(0.026888888888888882,0,0,0.026888888888888882,0,0)" xlink:href="#al"/><use transform="matrix(0.026888888888888882,0,0,0.026888888888888882,14.977111111111107,0)" xlink:href="#as"/><use transform="matrix(0.026888888888888882,0,0,0.026888888888888882,24.361333333333327,0)" xlink:href="#at"/><use transform="matrix(0.026888888888888882,0,0,0.026888888888888882,33.853111111111104,0)" xlink:href="#au"/><use transform="matrix(0.026888888888888882,0,0,0.026888888888888882,40.49466666666666,0)" xlink:href="#av"/><use transform="matrix(0.026888888888888882,0,0,0.026888888888888882,52.27199999999999,0)" xlink:href="#at"/></g><g id="p"><use transform="matrix(0.022222222222222223,0,0,0.022222222222222223,0,0)" xlink:href="#ac"/><use transform="matrix(0.022222222222222223,0,0,0.022222222222222223,11.133333333333335,0)" xlink:href="#ag"/><use transform="matrix(0.022222222222222223,0,0,0.022222222222222223,18.822222222222223,0)" xlink:href="#Z"/><use transform="matrix(0.022222222222222223,0,0,0.022222222222222223,26.622222222222224,0)" xlink:href="#X"/><use transform="matrix(0.022222222222222223,0,0,0.022222222222222223,31.46666666666667,0)" xlink:href="#S"/><use transform="matrix(0.022222222222222223,0,0,0.022222222222222223,41.800000000000004,0)" xlink:href="#Z"/><use transform="matrix(0.022222222222222223,0,0,0.022222222222222223,49.60000000000001,0)" xlink:href="#W"/><use transform="matrix(0.022222222222222223,0,0,0.022222222222222223,63.64444444444446,0)" xlink:href="#X"/><use transform="matrix(0.022222222222222223,0,0,0.022222222222222223,68.35555555555557,0)" xlink:href="#Y"/><path fill="#ededed" d="M-1.1 2.22H81.2v1.1H-1.1z"/></g><g id="q"><use transform="matrix(0.022222222222222223,0,0,0.022222222222222223,0,0)" xlink:href="#ac"/><use transform="matrix(0.022222222222222223,0,0,0.022222222222222223,11.133333333333335,0)" xlink:href="#ag"/><use transform="matrix(0.022222222222222223,0,0,0.022222222222222223,18.822222222222223,0)" xlink:href="#Z"/><use transform="matrix(0.022222222222222223,0,0,0.022222222222222223,26.622222222222224,0)" xlink:href="#X"/><use transform="matrix(0.022222222222222223,0,0,0.022222222222222223,31.46666666666667,0)" xlink:href="#S"/><use transform="matrix(0.022222222222222223,0,0,0.022222222222222223,41.800000000000004,0)" xlink:href="#Z"/><use transform="matrix(0.022222222222222223,0,0,0.022222222222222223,49.60000000000001,0)" xlink:href="#W"/><use transform="matrix(0.022222222222222223,0,0,0.022222222222222223,63.64444444444446,0)" xlink:href="#U"/><use transform="matrix(0.022222222222222223,0,0,0.022222222222222223,75.57777777777778,0)" xlink:href="#ac"/><use transform="matrix(0.022222222222222223,0,0,0.022222222222222223,86.71111111111112,0)" xlink:href="#af"/><use transform="matrix(0.022222222222222223,0,0,0.022222222222222223,105.28888888888892,0)" xlink:href="#ab"/></g><path fill="#ededed" d="M395-262c-1-111-3-182-110-181-43-1-96 13-138 30V0H72v-718h75v246c51-23 93-37 158-38 146-2 164 96 165 246V0h-75v-262" id="aw"/><g id="r"><use transform="matrix(0.022222222222222223,0,0,0.022222222222222223,0,0)" xlink:href="#ad"/><use transform="matrix(0.022222222222222223,0,0,0.022222222222222223,11.68888888888889,0)" xlink:href="#X"/><use transform="matrix(0.022222222222222223,0,0,0.022222222222222223,16.400000000000002,0)" xlink:href="#T"/><use transform="matrix(0.022222222222222223,0,0,0.022222222222222223,28.133333333333333,0)" xlink:href="#V"/><use transform="matrix(0.022222222222222223,0,0,0.022222222222222223,39.55555555555556,0)" xlink:href="#ag"/><use transform="matrix(0.022222222222222223,0,0,0.022222222222222223,47.24444444444445,0)" xlink:href="#ac"/><use transform="matrix(0.022222222222222223,0,0,0.022222222222222223,58.37777777777778,0)" xlink:href="#ai"/><use transform="matrix(0.022222222222222223,0,0,0.022222222222222223,70.08888888888889,0)" xlink:href="#aw"/><use transform="matrix(0.022222222222222223,0,0,0.022222222222222223,81.88888888888889,0)" xlink:href="#aj"/></g><path fill="#da3145" d="M245-110c63 0 128 13 128-59v-453c0-14 7-21 21-21h84c15 0 22 7 22 20v460C501-60 438 1 335 0H225C120 1 59-58 60-163v-459c0-14 7-21 21-21h85c14 0 21 7 21 21v453c0 43 16 59 58 59" id="ax"/><path fill="#da3145" d="M452-86c-6 30 16 86-21 86H210C105 1 44-58 45-163v-184c-1-105 60-164 165-163h79c105-1 166 58 165 163v127c0 14-7 21-21 21H182c-17-1-12 19-12 33 0 42 16 58 59 58h202c14 0 21 7 21 22zM271-401c-58-2-107-2-100 58 2 20-10 59 11 59h136c21-3 7-40 11-59-1-43-15-57-58-58" id="ay"/><g id="s"><use transform="matrix(0.026888888888888882,0,0,0.026888888888888882,0,0)" xlink:href="#ax"/><use transform="matrix(0.026888888888888882,0,0,0.026888888888888882,15.057777777777774,0)" xlink:href="#av"/><use transform="matrix(0.026888888888888882,0,0,0.026888888888888882,26.835111111111104,0)" xlink:href="#ay"/><use transform="matrix(0.026888888888888882,0,0,0.026888888888888882,40.118222222222215,0)" xlink:href="#as"/></g><g id="t"><use transform="matrix(0.022222222222222223,0,0,0.022222222222222223,0,0)" xlink:href="#ae"/><use transform="matrix(0.022222222222222223,0,0,0.022222222222222223,11.8,0)" xlink:href="#S"/><use transform="matrix(0.022222222222222223,0,0,0.022222222222222223,22.133333333333333,0)" xlink:href="#ab"/><use transform="matrix(0.022222222222222223,0,0,0.022222222222222223,33.355555555555554,0)" xlink:href="#ag"/><use transform="matrix(0.022222222222222223,0,0,0.022222222222222223,41.044444444444444,0)" xlink:href="#W"/><use transform="matrix(0.022222222222222223,0,0,0.022222222222222223,55.08888888888889,0)" xlink:href="#X"/><use transform="matrix(0.022222222222222223,0,0,0.022222222222222223,59.79999999999999,0)" xlink:href="#Y"/><path fill="#ededed" d="M-1.1 2.22h73.77v1.1H-1.1z"/></g><g id="u"><use transform="matrix(0.022222222222222223,0,0,0.022222222222222223,0,0)" xlink:href="#ae"/><use transform="matrix(0.022222222222222223,0,0,0.022222222222222223,11.8,0)" xlink:href="#S"/><use transform="matrix(0.022222222222222223,0,0,0.022222222222222223,22.133333333333333,0)" xlink:href="#ab"/><use transform="matrix(0.022222222222222223,0,0,0.022222222222222223,33.355555555555554,0)" xlink:href="#ag"/><use transform="matrix(0.022222222222222223,0,0,0.022222222222222223,41.044444444444444,0)" xlink:href="#U"/><use transform="matrix(0.022222222222222223,0,0,0.022222222222222223,52.97777777777777,0)" xlink:href="#ac"/><use transform="matrix(0.022222222222222223,0,0,0.022222222222222223,64.11111111111111,0)" xlink:href="#af"/><use transform="matrix(0.022222222222222223,0,0,0.022222222222222223,82.6888888888889,0)" xlink:href="#ab"/></g><path fill="#ededed" d="M31-500h75L207-65h16l119-425h78L539-65h17l100-435h75L612 0H487L381-391 275 0H150" id="az"/><g id="v"><use transform="matrix(0.022222222222222223,0,0,0.022222222222222223,0,0)" xlink:href="#ai"/><use transform="matrix(0.022222222222222223,0,0,0.022222222222222223,11.711111111111112,0)" xlink:href="#ac"/><use transform="matrix(0.022222222222222223,0,0,0.022222222222222223,22.844444444444452,0)" xlink:href="#S"/><use transform="matrix(0.022222222222222223,0,0,0.022222222222222223,33.177777777777784,0)" xlink:href="#S"/><use transform="matrix(0.022222222222222223,0,0,0.022222222222222223,43.42222222222223,0)" xlink:href="#az"/><use transform="matrix(0.022222222222222223,0,0,0.022222222222222223,60.244444444444454,0)" xlink:href="#T"/><use transform="matrix(0.022222222222222223,0,0,0.022222222222222223,71.97777777777779,0)" xlink:href="#ag"/><use transform="matrix(0.022222222222222223,0,0,0.022222222222222223,79.37777777777778,0)" xlink:href="#Y"/><use transform="matrix(0.022222222222222223,0,0,0.022222222222222223,91.13333333333334,0)" xlink:href="#W"/><use transform="matrix(0.022222222222222223,0,0,0.022222222222222223,105.17777777777778,0)" xlink:href="#aw"/><use transform="matrix(0.022222222222222223,0,0,0.022222222222222223,117.11111111111111,0)" xlink:href="#ac"/><use transform="matrix(0.022222222222222223,0,0,0.022222222222222223,128.24444444444444,0)" xlink:href="#S"/><use transform="matrix(0.022222222222222223,0,0,0.022222222222222223,138.57777777777778,0)" xlink:href="#aw"/></g><path fill="#ededed" d="M280 10C85 9 40-127 39-330c1-203 47-341 241-341 190 0 239 126 240 341-1 203-46 339-240 340zm0-68c144 0 161-118 161-272s-17-272-161-272-161 118-161 272S136-58 280-58" id="aA"/><use transform="matrix(0.022222222222222223,0,0,0.022222222222222223,0,0)" xlink:href="#aA" id="w"/><path fill="#ededed" d="M67-114h82V0H67v-114" id="aB"/><g id="x"><use transform="matrix(0.022222222222222223,0,0,0.022222222222222223,0,0)" xlink:href="#aB"/><use transform="matrix(0.022222222222222223,0,0,0.022222222222222223,4.8,0)" xlink:href="#aB"/></g><path fill="#ededed" d="M192-497L85-418l-31-40 108-79-106-77 31-42 106 78 41-126 49 16-40 127h130v50H241l41 125-49 15" id="aC"/><use transform="matrix(0.022222222222222223,0,0,0.022222222222222223,0,0)" xlink:href="#aC" id="y"/><g id="z"><use transform="matrix(0.022222222222222223,0,0,0.022222222222222223,0,0)" xlink:href="#ai"/><use transform="matrix(0.022222222222222223,0,0,0.022222222222222223,11.711111111111112,0)" xlink:href="#aa"/><use transform="matrix(0.022222222222222223,0,0,0.022222222222222223,16.844444444444445,0)" xlink:href="#ac"/><use transform="matrix(0.022222222222222223,0,0,0.022222222222222223,27.866666666666667,0)" xlink:href="#aj"/><use transform="matrix(0.022222222222222223,0,0,0.022222222222222223,38.44444444444444,0)" xlink:href="#S"/></g><path fill="#da3145" d="M494-384c1 103-61 164-164 163H204c-8 0-12 4-12 11v189c0 14-7 21-21 21H86C72 0 65-7 65-21v-601c0-14 7-21 21-21h244c103-1 165 60 164 163v96zm-127-6c-6-65 19-143-58-143H203c-7 0-11 4-11 11v179c0 7 4 11 11 11 68-6 171 25 164-58" id="aD"/><path fill="#da3145" d="M332-54C317-14 267 0 210 0 105 0 44-58 45-163v-184c-1-105 60-164 165-163h231c15 0 22 7 22 21v468c0 14-7 21-22 21h-84c-27 2-20-30-21-54h-4zM172-169c-5 59 38 59 95 59 46 0 69-25 69-76v-203c0-7-4-11-12-11-67 5-152-22-152 59v172" id="aE"/><path fill="#da3145" d="M263 126c-41 42-108 46-189 43-34-1-16-58-20-89-3-24 19-23 41-22 87-2 101-16 120-85-32-3-70 10-78-21L20-489c-4-14 1-21 15-21 40 0 105-17 114 21l86 369h4l85-369c7-38 70-21 109-21 17 0 23 7 20 22L331 0c-15 55-37 97-68 126" id="aF"/><g id="A"><use transform="matrix(0.026888888888888882,0,0,0.026888888888888882,0,0)" xlink:href="#aD"/><use transform="matrix(0.026888888888888882,0,0,0.026888888888888882,14.251111111111108,0)" xlink:href="#am"/><use transform="matrix(0.026888888888888882,0,0,0.026888888888888882,20.892666666666663,0)" xlink:href="#aE"/><use transform="matrix(0.026888888888888882,0,0,0.026888888888888882,34.82111111111111,0)" xlink:href="#aF"/><use transform="matrix(0.026888888888888882,0,0,0.026888888888888882,47.48577777777777,0)" xlink:href="#am"/><use transform="matrix(0.026888888888888882,0,0,0.026888888888888882,54.127333333333326,0)" xlink:href="#au"/><use transform="matrix(0.026888888888888882,0,0,0.026888888888888882,60.76888888888889,0)" xlink:href="#av"/><use transform="matrix(0.026888888888888882,0,0,0.026888888888888882,72.54622222222221,0)" xlink:href="#at"/></g><g id="B"><use transform="matrix(0.022222222222222223,0,0,0.022222222222222223,0,0)" xlink:href="#ai"/><use transform="matrix(0.022222222222222223,0,0,0.022222222222222223,11.711111111111112,0)" xlink:href="#aa"/><use transform="matrix(0.022222222222222223,0,0,0.022222222222222223,16.844444444444445,0)" xlink:href="#ac"/><use transform="matrix(0.022222222222222223,0,0,0.022222222222222223,27.866666666666667,0)" xlink:href="#aj"/><use transform="matrix(0.022222222222222223,0,0,0.022222222222222223,38.6,0)" xlink:href="#aa"/><use transform="matrix(0.022222222222222223,0,0,0.022222222222222223,43.733333333333334,0)" xlink:href="#X"/><use transform="matrix(0.022222222222222223,0,0,0.022222222222222223,48.57777777777778,0)" xlink:href="#S"/><use transform="matrix(0.022222222222222223,0,0,0.022222222222222223,58.911111111111126,0)" xlink:href="#Z"/><use transform="matrix(0.022222222222222223,0,0,0.022222222222222223,66.71111111111112,0)" xlink:href="#W"/><use transform="matrix(0.022222222222222223,0,0,0.022222222222222223,80.75555555555556,0)" xlink:href="#X"/><use transform="matrix(0.022222222222222223,0,0,0.022222222222222223,85.46666666666667,0)" xlink:href="#Y"/><path fill="#ededed" d="M-1.1 2.22h99.43v1.1H-1.1z"/></g><g id="C"><use transform="matrix(0.022222222222222223,0,0,0.022222222222222223,0,0)" xlink:href="#ai"/><use transform="matrix(0.022222222222222223,0,0,0.022222222222222223,11.711111111111112,0)" xlink:href="#aa"/><use transform="matrix(0.022222222222222223,0,0,0.022222222222222223,16.844444444444445,0)" xlink:href="#ac"/><use transform="matrix(0.022222222222222223,0,0,0.022222222222222223,27.866666666666667,0)" xlink:href="#aj"/><use transform="matrix(0.022222222222222223,0,0,0.022222222222222223,38.6,0)" xlink:href="#aa"/><use transform="matrix(0.022222222222222223,0,0,0.022222222222222223,43.733333333333334,0)" xlink:href="#X"/><use transform="matrix(0.022222222222222223,0,0,0.022222222222222223,48.57777777777778,0)" xlink:href="#S"/><use transform="matrix(0.022222222222222223,0,0,0.022222222222222223,58.911111111111126,0)" xlink:href="#Z"/><use transform="matrix(0.022222222222222223,0,0,0.022222222222222223,66.71111111111112,0)" xlink:href="#W"/><use transform="matrix(0.022222222222222223,0,0,0.022222222222222223,80.75555555555556,0)" xlink:href="#U"/><use transform="matrix(0.022222222222222223,0,0,0.022222222222222223,92.6888888888889,0)" xlink:href="#ac"/><use transform="matrix(0.022222222222222223,0,0,0.022222222222222223,103.82222222222225,0)" xlink:href="#af"/><use transform="matrix(0.022222222222222223,0,0,0.022222222222222223,122.40000000000002,0)" xlink:href="#ab"/></g><g id="D"><use transform="matrix(0.022222222222222223,0,0,0.022222222222222223,0,0)" xlink:href="#ae"/><use transform="matrix(0.022222222222222223,0,0,0.022222222222222223,11.8,0)" xlink:href="#S"/><use transform="matrix(0.022222222222222223,0,0,0.022222222222222223,22.133333333333333,0)" xlink:href="#ab"/><use transform="matrix(0.022222222222222223,0,0,0.022222222222222223,33.355555555555554,0)" xlink:href="#ag"/><use transform="matrix(0.022222222222222223,0,0,0.022222222222222223,41.044444444444444,0)" xlink:href="#W"/><use transform="matrix(0.022222222222222223,0,0,0.022222222222222223,55.08888888888889,0)" xlink:href="#X"/><use transform="matrix(0.022222222222222223,0,0,0.022222222222222223,59.79999999999999,0)" xlink:href="#Y"/></g><use transform="matrix(0.02244444444444444,0,0,0.02244444444444444,0,0)" xlink:href="#aA" id="E"/><g id="F"><use transform="matrix(0.02244444444444444,0,0,0.02244444444444444,0,0)" xlink:href="#aB"/><use transform="matrix(0.02244444444444444,0,0,0.02244444444444444,4.847999999999999,0)" xlink:href="#aB"/></g><use transform="matrix(0.02244444444444444,0,0,0.02244444444444444,0,0)" xlink:href="#aC" id="G"/><g id="H"><use transform="matrix(0.022222222222222223,0,0,0.022222222222222223,0,0)" xlink:href="#ah"/><use transform="matrix(0.022222222222222223,0,0,0.022222222222222223,9.555555555555557,0)" xlink:href="#T"/><use transform="matrix(0.022222222222222223,0,0,0.022222222222222223,21.28888888888889,0)" xlink:href="#U"/><use transform="matrix(0.022222222222222223,0,0,0.022222222222222223,33.15555555555556,0)" xlink:href="#Z"/><use transform="matrix(0.022222222222222223,0,0,0.022222222222222223,40.95555555555556,0)" xlink:href="#ac"/><use transform="matrix(0.022222222222222223,0,0,0.022222222222222223,52.08888888888889,0)" xlink:href="#X"/><use transform="matrix(0.022222222222222223,0,0,0.022222222222222223,56.93333333333334,0)" xlink:href="#U"/><use transform="matrix(0.022222222222222223,0,0,0.022222222222222223,68.86666666666667,0)" xlink:href="#S"/></g><path fill="#da3145" d="M340-54C323-9 266 0 201 0 98 0 45-59 45-163v-184c-1-119 68-172 197-163 43 3 86 20 98 54h4v-226c0-14 7-21 21-21h85c14 0 21 7 21 21v661c0 14-7 21-21 21h-85c-27 2-20-30-21-54h-4zM172-169c-6 62 44 59 103 59 98 0 64-128 69-214 4-70-45-80-114-76-43 2-57 16-58 59v172" id="aG"/><g id="I"><use transform="matrix(0.026888888888888882,0,0,0.026888888888888882,0,0)" xlink:href="#al"/><use transform="matrix(0.026888888888888882,0,0,0.026888888888888882,14.977111111111107,0)" xlink:href="#aG"/><use transform="matrix(0.026888888888888882,0,0,0.026888888888888882,29.120666666666658,0)" xlink:href="#ap"/><use transform="matrix(0.026888888888888882,0,0,0.026888888888888882,50.57799999999999,0)" xlink:href="#au"/><use transform="matrix(0.026888888888888882,0,0,0.026888888888888882,57.219555555555544,0)" xlink:href="#Q"/><use transform="matrix(0.026888888888888882,0,0,0.026888888888888882,71.28244444444442,0)" xlink:href="#au"/><use transform="matrix(0.026888888888888882,0,0,0.026888888888888882,77.92399999999998,0)" xlink:href="#av"/><use transform="matrix(0.026888888888888882,0,0,0.026888888888888882,89.70133333333331,0)" xlink:href="#at"/><use transform="matrix(0.026888888888888882,0,0,0.026888888888888882,99.19311111111108,0)" xlink:href="#as"/><use transform="matrix(0.026888888888888882,0,0,0.026888888888888882,108.5773333333333,0)" xlink:href="#aE"/><use transform="matrix(0.026888888888888882,0,0,0.026888888888888882,122.50577777777775,0)" xlink:href="#at"/><use transform="matrix(0.026888888888888882,0,0,0.026888888888888882,131.99755555555552,0)" xlink:href="#P"/><use transform="matrix(0.026888888888888882,0,0,0.026888888888888882,145.68399999999997,0)" xlink:href="#as"/></g><g id="J"><use transform="matrix(0.022222222222222223,0,0,0.022222222222222223,0,0)" xlink:href="#ae"/><use transform="matrix(0.022222222222222223,0,0,0.022222222222222223,11.8,0)" xlink:href="#S"/><use transform="matrix(0.022222222222222223,0,0,0.022222222222222223,22.133333333333333,0)" xlink:href="#ab"/><use transform="matrix(0.022222222222222223,0,0,0.022222222222222223,33.355555555555554,0)" xlink:href="#ag"/><use transform="matrix(0.022222222222222223,0,0,0.022222222222222223,41.044444444444444,0)" xlink:href="#U"/><use transform="matrix(0.022222222222222223,0,0,0.022222222222222223,52.97777777777777,0)" xlink:href="#ac"/><use transform="matrix(0.022222222222222223,0,0,0.022222222222222223,64.11111111111111,0)" xlink:href="#af"/><use transform="matrix(0.022222222222222223,0,0,0.022222222222222223,82.6888888888889,0)" xlink:href="#ab"/><path fill="#ededed" d="M-1.1 2.22H95v1.1H-1.1z"/></g><g id="K"><use transform="matrix(0.022222222222222223,0,0,0.022222222222222223,0,0)" xlink:href="#ai"/><use transform="matrix(0.022222222222222223,0,0,0.022222222222222223,11.711111111111112,0)" xlink:href="#ac"/><use transform="matrix(0.022222222222222223,0,0,0.022222222222222223,22.844444444444452,0)" xlink:href="#S"/><use transform="matrix(0.022222222222222223,0,0,0.022222222222222223,33.177777777777784,0)" xlink:href="#S"/><use transform="matrix(0.022222222222222223,0,0,0.022222222222222223,43.42222222222223,0)" xlink:href="#az"/><use transform="matrix(0.022222222222222223,0,0,0.022222222222222223,60.244444444444454,0)" xlink:href="#T"/><use transform="matrix(0.022222222222222223,0,0,0.022222222222222223,71.97777777777779,0)" xlink:href="#ag"/><use transform="matrix(0.022222222222222223,0,0,0.022222222222222223,79.37777777777778,0)" xlink:href="#Y"/><use transform="matrix(0.022222222222222223,0,0,0.022222222222222223,91.13333333333334,0)" xlink:href="#W"/><use transform="matrix(0.022222222222222223,0,0,0.022222222222222223,105.17777777777778,0)" xlink:href="#aw"/><use transform="matrix(0.022222222222222223,0,0,0.022222222222222223,117.11111111111111,0)" xlink:href="#ac"/><use transform="matrix(0.022222222222222223,0,0,0.022222222222222223,128.24444444444444,0)" xlink:href="#S"/><use transform="matrix(0.022222222222222223,0,0,0.022222222222222223,138.57777777777778,0)" xlink:href="#aw"/></g><path fill="#ededed" d="M312-574L142-462l-35-58 210-140h72V0h-77v-574" id="aH"/><use transform="matrix(0.022222222222222223,0,0,0.022222222222222223,0,0)" xlink:href="#aH" id="L"/><g id="M"><use transform="matrix(0.022222222222222223,0,0,0.022222222222222223,0,0)" xlink:href="#ae"/><use transform="matrix(0.022222222222222223,0,0,0.022222222222222223,11.8,0)" xlink:href="#ai"/><use transform="matrix(0.022222222222222223,0,0,0.022222222222222223,23.511111111111113,0)" xlink:href="#aa"/><use transform="matrix(0.022222222222222223,0,0,0.022222222222222223,28.511111111111113,0)" xlink:href="#T"/><use transform="matrix(0.022222222222222223,0,0,0.022222222222222223,40.24444444444445,0)" xlink:href="#ac"/><use transform="matrix(0.022222222222222223,0,0,0.022222222222222223,51.37777777777778,0)" xlink:href="#Y"/><use transform="matrix(0.022222222222222223,0,0,0.022222222222222223,63.13333333333333,0)" xlink:href="#S"/></g><use transform="matrix(0.022222222222222223,0,0,0.022222222222222223,0,0)" xlink:href="#aH" id="N"/></defs></g></svg>